<svg width="1052" height="1371" viewBox="0 0 1052 1371" fill="none" xmlns="http://www.w3.org/2000/svg">
<path d="M298.5 696C319.3 587.6 319.833 446.167 317.5 389L388 278L616 50L914.5 187L1001.5 395C1001.5 406.667 1001 459.1 999 575.5C996.5 721 1078 826 1043 960C1015 1067.2 916.333 1087.33 870.5 1084C722.333 1096.17 405.9 1104 325.5 1038C225 955.5 272.5 831.5 298.5 696Z" fill="#232542"/>
<path d="M374.5 866.5C354.5 773.7 387.333 491.167 404 380L908 507.5C917 592 941 773.5 941 829.5C941 884.476 856.833 1008.5 831.5 1039.5L447.5 1015.5C433 992.167 394.5 959.3 374.5 866.5Z" fill="black"/>
<path d="M91.2213 601.925C83.6388 607.591 59.5811 669.169 55 697.5C71.8236 694.352 118.376 675.349 117.997 638.519C117.523 592.481 100.699 594.842 91.2213 601.925Z" fill="#FC9895"/>
<path d="M34 771C28 808.6 25.5 877.666 25 907.5L126.5 937L131.5 884C149 865.5 161.333 851.833 163.5 837C236 829 228 756 214 689.5C199.933 622.682 94 662.5 69.5 674C45 685.5 41.5 724 34 771Z" fill="#FFAFAD"/>
<path d="M391.5 935C408.3 908.6 487.5 882.667 525 873L660 935L795 869.5C823.833 881 887.5 906.8 911.5 918C935.5 929.2 940.833 939 940.5 942.5C960 967.833 979.7 1043.3 1002.5 1114.5C1025.3 1185.7 1033.83 1312.5 1041.5 1370.5H405.5C394.7 1328.9 391.667 1242.83 391.5 1205C319.167 1260.67 172.7 1357.7 121.5 1356.5C57.4999 1355 41.5 1319.5 30.4999 1284.5C16.3214 1239.39 5.49999 1154.5 1.49999 1071.5C-1.70001 1005.1 2.33329 965 7.99996 955.5V897L151 900.5L153 966C160.2 977.2 163 996.333 163.5 1004.5L174.5 1143.5L391.5 935Z" fill="#30AC45"/>
<path d="M151 900.5L153 966C97.8 966 33.3333 959 8 955.5V897L151 900.5Z" fill="#258C31"/>
<path d="M405.5 1370.5C394.7 1328.9 391.667 1242.83 391.5 1205C363 1022 370.5 1009 377.5 947.736L391.5 935V1205C391.667 1242.83 394.7 1328.9 405.5 1370.5H922L940.5 942.5C946 1120.5 948.167 1276.33 948 1370.5H922H405.5Z" fill="#258C31"/>
<rect x="509" y="923" width="332" height="197" fill="#30AC45"/>
<path d="M588 743V822L585.5 890L642.5 913.5L726 909.5L733 822L730.5 743H588Z" fill="#FC9895"/>
<path d="M730.5 743H588V782.5C651.5 860.5 702.5 816 731.528 775.5L730.5 743Z" fill="#DD6A7B"/>
<path d="M1032.5 452.5C1000.1 396.5 949.667 421.5 928.5 441C898 479.5 852.9 562.1 916.5 584.5C996 612.5 1073 522.5 1032.5 452.5Z" fill="#FC9895"/>
<path d="M294.148 452.5C326.548 396.5 376.982 421.5 398.148 441C428.648 479.5 473.748 562.1 410.148 584.5C330.648 612.5 253.648 522.5 294.148 452.5Z" fill="#FC9895"/>
<path d="M992.5 458C964.9 442.4 941.667 460.833 933.5 472L905.5 553.5C916 555.5 944.3 557.5 973.5 549.5C1010 539.5 1027 477.5 992.5 458Z" fill="#DC657C"/>
<path d="M334.148 458C361.748 442.4 384.982 460.833 393.148 472L421.148 553.5C410.648 555.5 382.348 557.5 353.148 549.5C316.648 539.5 299.648 477.5 334.148 458Z" fill="#DC657C"/>
<path d="M420 615C390.4 551 378.667 358 376.5 269.5L405.5 199.5L681.5 48.5L939 262.5C945.167 309.833 952 432.1 930 542.5C902.5 680.5 790.5 764.5 664.5 767.5C538.5 770.5 457 695 420 615Z" fill="#FC9895"/>
<path d="M575 262.5C508.2 342.1 375.5 379.667 317.5 388.5C317.5 320.5 317.5 218 376.5 146.5C435.5 75 508 2.50003 654.5 1.00003C801 -0.499969 894 78.5 950.5 158.5C995.7 222.5 1003.33 342.833 1001.5 395C764.7 304.2 678.167 165.167 664.5 107C662.5 125.667 641.8 182.9 575 262.5Z" fill="black"/>
<path fill-rule="evenodd" clip-rule="evenodd" d="M651.383 644.999C596.891 644.148 563.597 609.234 553.46 591.171L566.54 583.829C574.736 598.433 603.709 629.252 651.617 630.001C701.172 630.775 732.394 613.169 740.978 605.43L751.022 616.57C739.272 627.164 704.228 645.825 651.383 644.999Z" fill="#7A2F2F"/>
<path fill-rule="evenodd" clip-rule="evenodd" d="M491.16 441.002C495.301 441.09 498.586 444.518 498.498 448.66C498.358 455.267 500.231 465.327 506.079 473.517C511.641 481.307 521.186 488 538 488C554.821 488 564.575 481.296 570.358 473.432C576.415 465.195 578.5 455.101 578.5 448.5C578.5 444.358 581.858 441 586 441C590.142 441 593.5 444.358 593.5 448.5C593.5 457.566 590.785 470.972 582.442 482.318C573.825 494.037 559.579 503 538 503C516.414 503 502.292 494.026 493.871 482.233C485.736 470.84 483.309 457.4 483.502 448.34C483.59 444.199 487.018 440.914 491.16 441.002Z" fill="black"/>
<path fill-rule="evenodd" clip-rule="evenodd" d="M746.168 441.002C750.31 441.09 753.595 444.518 753.507 448.66C753.367 455.267 755.24 465.327 761.088 473.517C766.65 481.307 776.195 488 793.009 488C809.83 488 819.584 481.296 825.367 473.432C831.424 465.195 833.509 455.101 833.509 448.5C833.509 444.358 836.867 441 841.009 441C845.151 441 848.509 444.358 848.509 448.5C848.509 457.566 845.794 470.972 837.451 482.318C828.834 494.037 814.587 503 793.009 503C771.423 503 757.301 494.026 748.88 482.233C740.745 470.84 738.318 457.4 738.511 448.34C738.599 444.199 742.027 440.914 746.168 441.002Z" fill="black"/>
<path d="M528.493 370.95C503.546 372.432 491.287 379.178 481.481 385.262C475.232 389.14 469.018 378.54 480 368.744C493.539 356.666 540.502 340.685 564.661 352.274C588.82 363.862 581.376 382.198 570.949 379.949C556.964 376.934 559.678 369.099 528.493 370.95Z" fill="black"/>
<path d="M798.84 370.95C823.787 372.432 836.046 379.178 845.852 385.262C852.101 389.14 858.314 378.54 847.333 368.744C833.793 356.666 786.83 340.685 762.672 352.274C738.513 363.862 745.957 382.198 756.384 379.949C770.369 376.934 767.655 369.099 798.84 370.95Z" fill="black"/>
<path d="M573 1255.28L628.5 975.94L697.5 960L758 1255.28L665 1329L573 1255.28Z" fill="#FED26F"/>
<path d="M664 996C633.2 996 607.833 962.667 599 946L659.5 912.5L738.5 939C726.5 958 694.8 996 664 996Z" fill="#FFC543"/>
<path d="M391.5 935C408.3 908.6 487.5 882.667 525 873C536.167 925.167 580.4 1046.7 668 1115.5C700.165 1088.5 772.347 1002.2 803.748 873C835.17 885.606 889.7 907.826 911.5 918C935.5 929.2 940.833 939 940.5 942.5C943.833 965 949.5 1029.5 945.5 1107.5C940.5 1205 934.5 1339.5 935 1370.5H405.5C394.7 1328.9 391.667 1242.83 391.5 1205C391.5 1196.33 390.6 1162 387 1094C383.4 1026 388.5 959.667 391.5 935Z" fill="#7CBFE8"/>
<path d="M668 1115.5C580.4 1046.7 536.167 925.167 525 873C508.812 877.173 484.855 884.377 461.5 893.341C473.167 975.06 530.8 1151.8 668 1205C725.5 1176.71 847.6 1076.62 876 902.568C851.964 892.477 823.357 880.867 803.748 873C772.347 1002.2 700.165 1088.5 668 1115.5Z" fill="#579FD3"/>
<path d="M520 871C538.8 839.8 572.5 825 587 821.5C597.8 859.5 642.167 894.333 663 907C695.8 890.2 723.333 843 733 821.5C769.4 827.5 795.5 858.333 804 873C806 894.5 789 940.5 770 970C754.8 993.6 730.333 979.833 720 970L660.5 914C647.333 926.333 616.8 954.8 600 970C579 989 571 987.5 545 956C524.2 930.8 519.667 888.833 520 871Z" fill="#258C31"/>
<path fill-rule="evenodd" clip-rule="evenodd" d="M716.367 503.84C720.031 506.713 722.13 511.018 721.999 516.559C721.806 524.767 717.708 530.854 712.581 534.981C707.504 539.068 701.316 541.331 696.485 542.02L695.78 537.07C699.819 536.494 705.143 534.549 709.446 531.086C713.698 527.663 716.85 522.86 717.001 516.441C717.097 512.367 715.62 509.608 713.282 507.775C710.846 505.864 707.225 504.774 702.825 504.689C694.009 504.52 683.068 508.422 675.376 515.687L671.943 512.053C680.579 503.894 692.785 499.496 702.921 499.69C707.997 499.788 712.802 501.045 716.367 503.84Z" fill="#7A2F2F"/>
</svg>
