<svg width="348" height="387" viewBox="0 0 348 387" fill="none" xmlns="http://www.w3.org/2000/svg">
<g clip-path="url(#clip0_47_117)">
<rect x="175.5" y="187" width="173" height="70" rx="12.0588" fill="#D6EEF9"/>
<path d="M196.139 223.642C196.139 222.545 196.343 221.582 196.751 220.752C197.172 219.923 197.74 219.285 198.454 218.839C199.169 218.392 199.966 218.169 200.846 218.169C201.599 218.169 202.256 218.322 202.817 218.628C203.391 218.934 203.831 219.336 204.137 219.834V218.322H207.41V229H204.137V227.488C203.818 227.986 203.372 228.387 202.798 228.694C202.237 229 201.58 229.153 200.827 229.153C199.959 229.153 199.169 228.93 198.454 228.483C197.74 228.024 197.172 227.38 196.751 226.55C196.343 225.708 196.139 224.739 196.139 223.642ZM204.137 223.661C204.137 222.844 203.908 222.2 203.449 221.728C203.002 221.256 202.453 221.02 201.803 221.02C201.152 221.02 200.597 221.256 200.138 221.728C199.692 222.187 199.468 222.825 199.468 223.642C199.468 224.458 199.692 225.109 200.138 225.594C200.597 226.066 201.152 226.302 201.803 226.302C202.453 226.302 203.002 226.066 203.449 225.594C203.908 225.122 204.137 224.477 204.137 223.661Z" fill="#4697CD"/>
<path d="M216.092 229L214.044 226.034L212.322 229H208.782L212.303 223.546L208.686 218.322H212.36L214.408 221.269L216.13 218.322H219.67L216.092 223.699L219.766 229H216.092Z" fill="#4697CD"/>
<path d="M234.784 223.776H231.454V227.182H228.354V223.776H225.024V220.848H228.354V217.423H231.454V220.848H234.784V223.776Z" fill="#4697CD"/>
<path d="M244.425 219.834C244.731 219.336 245.171 218.934 245.745 218.628C246.32 218.322 246.977 218.169 247.716 218.169C248.597 218.169 249.394 218.392 250.108 218.839C250.823 219.285 251.384 219.923 251.792 220.752C252.213 221.582 252.424 222.545 252.424 223.642C252.424 224.739 252.213 225.708 251.792 226.55C251.384 227.38 250.823 228.024 250.108 228.483C249.394 228.93 248.597 229.153 247.716 229.153C246.964 229.153 246.307 229.006 245.745 228.713C245.184 228.407 244.744 228.005 244.425 227.507V229H241.153V214.839H244.425V219.834ZM249.094 223.642C249.094 222.825 248.865 222.187 248.405 221.728C247.959 221.256 247.404 221.02 246.741 221.02C246.09 221.02 245.535 221.256 245.076 221.728C244.629 222.2 244.406 222.844 244.406 223.661C244.406 224.477 244.629 225.122 245.076 225.594C245.535 226.066 246.09 226.302 246.741 226.302C247.391 226.302 247.946 226.066 248.405 225.594C248.865 225.109 249.094 224.458 249.094 223.642Z" fill="#4697CD"/>
<path d="M269.027 218.418V221.307H258.311V218.418H269.027ZM269.027 223.297V226.187H258.311V223.297H269.027Z" fill="#4697CD"/>
<path d="M274.924 223.642C274.924 222.545 275.128 221.582 275.537 220.752C275.958 219.923 276.525 219.285 277.24 218.839C277.954 218.392 278.751 218.169 279.632 218.169C280.333 218.169 280.971 218.316 281.545 218.609C282.132 218.903 282.591 219.298 282.923 219.796V214.839H286.195V229H282.923V227.469C282.617 227.979 282.177 228.387 281.603 228.694C281.041 229 280.384 229.153 279.632 229.153C278.751 229.153 277.954 228.93 277.24 228.483C276.525 228.024 275.958 227.38 275.537 226.55C275.128 225.708 274.924 224.739 274.924 223.642ZM282.923 223.661C282.923 222.844 282.693 222.2 282.234 221.728C281.788 221.256 281.239 221.02 280.588 221.02C279.938 221.02 279.383 221.256 278.924 221.728C278.477 222.187 278.254 222.825 278.254 223.642C278.254 224.458 278.477 225.109 278.924 225.594C279.383 226.066 279.938 226.302 280.588 226.302C281.239 226.302 281.788 226.066 282.234 225.594C282.693 225.122 282.923 224.477 282.923 223.661Z" fill="#4697CD"/>
<path d="M294.877 229L292.83 226.034L291.108 229H287.567L291.088 223.546L287.472 218.322H291.146L293.193 221.269L294.916 218.322H298.456L294.877 223.699L298.551 229H294.877Z" fill="#4697CD"/>
<path d="M313.569 223.776H310.24V227.182H307.14V223.776H303.81V220.848H307.14V217.423H310.24V220.848H313.569V223.776Z" fill="#4697CD"/>
<path d="M330.004 223.489C330.004 223.795 329.985 224.114 329.946 224.446H322.541C322.592 225.109 322.802 225.619 323.172 225.976C323.555 226.321 324.021 226.493 324.569 226.493C325.386 226.493 325.953 226.149 326.272 225.46H329.755C329.577 226.161 329.251 226.793 328.779 227.354C328.32 227.915 327.739 228.356 327.038 228.675C326.336 228.993 325.552 229.153 324.684 229.153C323.638 229.153 322.707 228.93 321.89 228.483C321.074 228.037 320.436 227.399 319.977 226.57C319.517 225.74 319.288 224.771 319.288 223.661C319.288 222.551 319.511 221.582 319.958 220.752C320.417 219.923 321.055 219.285 321.871 218.839C322.688 218.392 323.625 218.169 324.684 218.169C325.717 218.169 326.636 218.386 327.44 218.82C328.243 219.253 328.868 219.872 329.315 220.676C329.774 221.479 330.004 222.417 330.004 223.489ZM326.655 222.628C326.655 222.066 326.464 221.62 326.081 221.288C325.698 220.956 325.22 220.791 324.646 220.791C324.097 220.791 323.632 220.95 323.249 221.269C322.879 221.588 322.649 222.041 322.56 222.628H326.655Z" fill="#4697CD"/>
<path d="M205.345 275C201.443 275 195.823 280.333 193.5 283L205.345 281.545C206.971 279.364 209.248 275 205.345 275Z" fill="#FFC8C7"/>
<path d="M162.786 331.261L144.397 278.879L114.637 298.601C121.184 311.847 135.994 341.223 142.857 352.754C151.436 367.167 158.585 370.082 169.172 363.562C177.642 358.345 190.519 330.757 197.955 310.48C208.569 292.769 208.201 295.463 218.827 294.091C229.452 292.719 238.56 282.207 234.755 281.348C231.71 280.66 215 284.5 201.255 280.863C189.851 279.507 189.489 287.597 188.603 295.689C180.72 307.662 169.078 322.5 162.786 331.261Z" fill="#FC9895"/>
<path d="M16.2282 203.525C20.5024 187.853 19.4662 165.1 18.4139 155.683L23.9186 137.955L66.8225 93.7554L110.131 99.8267L148.583 148.721C148.826 153.821 149.457 167.372 150.04 180.777C150.768 197.534 156.435 209.758 156.111 224.329C155.852 235.986 146.613 240.735 142.026 241.652C143.904 234.853 143.51 227.27 143.078 224.329C142.236 235.144 137.978 241.302 135.954 243.029C89.8449 252.678 47.3403 247.049 31.8517 243.029C26.1528 240.179 25.3217 228.458 25.6185 222.953C23.1576 226.515 23.4059 236.903 23.8376 241.652C9.75215 236.876 10.8855 223.115 16.2282 203.525Z" fill="black"/>
<path d="M2.5 388L6.1428 321.065L37.4136 329.403L30.1626 389L2.5 388Z" fill="#FC9895"/>
<path d="M6.5 320L37.9137 329.944L37 337.5C25.4153 338.606 11.2663 335.573 5.5 334L6.5 320Z" fill="#DC657C"/>
<path d="M128.822 332.099L157.003 313.997L160.503 324.497C153.526 333.811 141.544 337.793 136.5 341L128.822 332.099Z" fill="#DC657C"/>
<path d="M23.1899 264.481C27.4641 257.875 48.8243 247.05 58.9702 242.462C72.8667 241.518 102.344 240.196 109.079 242.462C117.498 245.296 132.716 253.715 143.24 263.186C151.659 270.763 156.873 299.092 162 314.5C151.5 324.5 147 329 136.116 338.36L134.15 343.36V391H35.3325C35.3325 391 36.0611 340.494 35.3325 332.561H31.6088C20.0814 331.719 6.12528 325.871 0 321.5C4.37134 303.043 17.8472 272.738 23.1899 264.481Z" fill="#30AC45"/>
<path d="M67.9559 231.048L67.4702 235.095L66.9036 236.795L82.1223 248.048L89.0841 246.348L100.336 235.257L99.6886 230.967L97.9887 220.201L69.2511 219.31L67.9559 231.048Z" fill="#FC9895"/>
<path d="M97.9886 220.201L69.2511 219.31L68.4829 226.272C70.385 228.134 76.8281 233.153 84.1461 232.829C91.464 232.505 96.7928 227.864 98.9473 226.272L97.9886 220.201Z" fill="#DC657C"/>
<path d="M69.5 346.623L78 261H89.6892L99.5 346.623L84.4189 361.5L69.5 346.623Z" fill="#FED26F"/>
<path d="M83.6601 266.505C78.6735 266.505 74.5666 261.108 73.1365 258.409L84.1458 247.562L95.7218 257.276C93.7789 260.352 88.6467 266.505 83.6601 266.505Z" fill="#FFC543"/>
<path d="M154.087 165.639C149.166 154.695 139.084 157.949 134.659 160.944C126.294 169.795 113.045 188.29 126.969 191.463C144.373 195.429 160.24 179.32 154.087 165.639Z" fill="#FC9895"/>
<path d="M14.9082 165.639C19.8301 154.695 29.9111 157.949 34.3364 160.944C42.7014 169.795 55.9503 188.29 42.0268 191.463C24.6223 195.429 8.75598 179.32 14.9082 165.639Z" fill="#FC9895"/>
<path d="M143.645 165.64C139.047 164.28 134.983 171.927 133.526 175.921C130.531 179.779 127.05 186.849 137.088 184.259C149.635 181.021 149.392 167.34 143.645 165.64Z" fill="#DC657C"/>
<path d="M25.351 165.64C29.949 164.28 34.0128 171.927 35.4699 175.921C38.4651 179.779 41.9459 186.849 31.908 184.259C19.3607 181.021 19.6035 167.34 25.351 165.64Z" fill="#DC657C"/>
<path d="M55.0036 214.534C34.2802 202.294 32.2294 166.53 33.7945 150.178L35.8992 118.85L67.2272 91.9746L131.421 110.836C135.064 127.026 139.84 165.85 129.802 191.625C117.255 223.843 80.9079 229.834 55.0036 214.534Z" fill="#FC9895"/>
<path d="M148.502 148.802C88.1125 150.988 77.0223 117.096 72.0033 99.8268C64.232 151.15 28.8835 153.416 18.4139 155.521C15.8234 125.245 25.8613 106.384 39.7849 91.4889C50.9237 79.573 68.0097 78.2669 75.1604 79.1034C100.984 68.7417 125.917 86.2271 137.412 103.551C146.608 117.409 148.637 139.493 148.502 148.802Z" fill="#1E1F36"/>
<path d="M66.0936 189.277C62.0785 191.609 65.1222 197.534 67.146 200.206C79.6124 214.939 91.2693 209.191 97.4216 204.496C103.574 199.801 106.164 192.192 102.521 189.277C98.8787 186.363 71.1126 186.363 66.0936 189.277Z" fill="black"/>
<path d="M70.5464 203.753C81.7011 213.895 91.833 208.761 97.4221 204.496C97.6145 204.349 97.8034 204.199 97.9887 204.047C95.3983 201.332 93.2126 198.506 83.9033 198.101C76.4558 197.777 71.8956 201.734 70.5464 203.753Z" fill="#C54C67"/>
<path d="M74.0271 193.244C69.4938 192.661 67.551 190.048 67.1462 188.814C73.4598 186.615 94.3144 186.522 100.903 188.536C96.9361 195.16 79.6936 193.973 74.0271 193.244Z" fill="white"/>
<rect x="50.0688" y="153.497" width="9.55219" height="19.5901" rx="4.69515" fill="black"/>
<rect x="106.326" y="153.173" width="9.55219" height="19.5901" rx="4.69515" fill="black"/>
<path d="M54.7597 148.754C50.7207 148.994 48.736 150.086 47.1484 151.071C46.1367 151.699 45.9743 150.129 47.7522 148.544C49.9443 146.588 56.704 143.854 60.6154 145.731C64.5268 147.607 63.3215 150.575 61.6334 150.211C59.3692 149.723 59.8085 148.455 54.7597 148.754Z" fill="black"/>
<path d="M110.996 148.754C115.035 148.994 117.02 150.086 118.608 151.071C119.619 151.699 119.782 150.129 118.004 148.544C115.812 146.588 109.052 143.854 105.141 145.731C101.229 147.607 102.435 150.575 104.123 150.211C106.387 149.723 105.948 148.455 110.996 148.754Z" fill="black"/>
<path fill-rule="evenodd" clip-rule="evenodd" d="M54.6802 183.125C66.4041 183.125 75.7274 174.003 75.7274 162.969C75.7274 151.934 66.4041 142.812 54.6802 142.812C42.9562 142.812 33.6329 151.934 33.6329 162.969C33.6329 174.003 42.9562 183.125 54.6802 183.125ZM54.6802 185.878C67.8243 185.878 78.4797 175.621 78.4797 162.969C78.4797 150.316 67.8243 140.06 54.6802 140.06C41.536 140.06 30.8806 150.316 30.8806 162.969C30.8806 175.621 41.536 185.878 54.6802 185.878Z" fill="white"/>
<path fill-rule="evenodd" clip-rule="evenodd" d="M110.698 183.125C122.422 183.125 131.745 174.003 131.745 162.969C131.745 151.934 122.422 142.812 110.698 142.812C98.9738 142.812 89.6505 151.934 89.6505 162.969C89.6505 174.003 98.9738 183.125 110.698 183.125ZM110.698 185.878C123.842 185.878 134.497 175.621 134.497 162.969C134.497 150.316 123.842 140.06 110.698 140.06C97.5536 140.06 86.8982 150.316 86.8982 162.969C86.8982 175.621 97.5536 185.878 110.698 185.878Z" fill="white"/>
<path fill-rule="evenodd" clip-rule="evenodd" d="M28.501 153.703L34.6532 155.16L33.907 158.311L27.7547 156.854L28.501 153.703Z" fill="white"/>
<path fill-rule="evenodd" clip-rule="evenodd" d="M138.496 153.703L132.343 155.16L133.09 158.311L139.242 156.854L138.496 153.703Z" fill="white"/>
<path fill-rule="evenodd" clip-rule="evenodd" d="M88.5173 164.992H77.1842V161.754H88.5173V164.992Z" fill="white"/>
<path d="M67.4702 235.096L67.9559 231.048L65.0417 232.425C63.876 233.655 60.3466 239.143 58.7275 241.734C59.6342 251.577 67.1464 259.273 70.7892 261.891C73.0558 260.207 80.4763 251.853 83.9032 247.886L96.9363 262.133C107.946 253.553 110.212 243.677 109.079 241.086C108.172 239.014 104.276 234.394 102.441 232.344L99.6887 231.048L100.255 235.096C96.823 239.176 87.9238 244.945 83.9032 247.319C76.6501 243.24 69.9257 237.47 67.4702 235.096Z" fill="#258C31"/>
<path d="M65.0415 232.425L67.47 235.096L67.9557 231.048L65.0415 232.425Z" fill="#535353"/>
<path d="M35.4136 332.561L26.8328 260.676C26.1852 264.238 29.747 310.083 31.6089 332.561H35.4136Z" fill="#258C31"/>
<path d="M134 343L141.5 261C140.811 274.731 140.464 319.705 139 335.5L134 343Z" fill="#258C31"/>
<path d="M100.255 235.096L99.6885 231.048L102.441 232.344L100.255 235.096Z" fill="#535353"/>
<rect x="175.5" y="98" width="173" height="70" rx="12.0588" fill="#D6EEF9"/>
<path d="M216.722 134.642C216.722 133.545 216.926 132.582 217.334 131.752C217.755 130.923 218.323 130.285 219.037 129.839C219.752 129.392 220.549 129.169 221.429 129.169C222.182 129.169 222.839 129.322 223.4 129.628C223.974 129.934 224.415 130.336 224.721 130.834V129.322H227.993V140H224.721V138.488C224.402 138.986 223.955 139.387 223.381 139.694C222.82 140 222.163 140.153 221.41 140.153C220.543 140.153 219.752 139.93 219.037 139.483C218.323 139.024 217.755 138.38 217.334 137.55C216.926 136.708 216.722 135.739 216.722 134.642ZM224.721 134.661C224.721 133.844 224.491 133.2 224.032 132.728C223.585 132.256 223.037 132.02 222.386 132.02C221.735 132.02 221.181 132.256 220.721 132.728C220.275 133.187 220.052 133.825 220.052 134.642C220.052 135.458 220.275 136.109 220.721 136.594C221.181 137.066 221.735 137.302 222.386 137.302C223.037 137.302 223.585 137.066 224.032 136.594C224.491 136.122 224.721 135.477 224.721 134.661Z" fill="#4697CD"/>
<path d="M236.675 140L234.627 137.034L232.905 140H229.365L232.886 134.546L229.269 129.322H232.944L234.991 132.269L236.713 129.322H240.253L236.675 134.699L240.349 140H236.675Z" fill="#4697CD"/>
<path d="M255.367 134.776H252.037V138.182H248.937V134.776H245.608V131.848H248.937V128.423H252.037V131.848H255.367V134.776Z" fill="#4697CD"/>
<path d="M265.008 130.834C265.315 130.336 265.755 129.934 266.329 129.628C266.903 129.322 267.56 129.169 268.3 129.169C269.18 129.169 269.977 129.392 270.692 129.839C271.406 130.285 271.967 130.923 272.376 131.752C272.797 132.582 273.007 133.545 273.007 134.642C273.007 135.739 272.797 136.708 272.376 137.55C271.967 138.38 271.406 139.024 270.692 139.483C269.977 139.93 269.18 140.153 268.3 140.153C267.547 140.153 266.89 140.006 266.329 139.713C265.767 139.407 265.327 139.005 265.008 138.507V140H261.736V125.839H265.008V130.834ZM269.677 134.642C269.677 133.825 269.448 133.187 268.989 132.728C268.542 132.256 267.987 132.02 267.324 132.02C266.673 132.02 266.118 132.256 265.659 132.728C265.212 133.2 264.989 133.844 264.989 134.661C264.989 135.477 265.212 136.122 265.659 136.594C266.118 137.066 266.673 137.302 267.324 137.302C267.974 137.302 268.529 137.066 268.989 136.594C269.448 136.109 269.677 135.458 269.677 134.642Z" fill="#4697CD"/>
<path d="M289.61 129.418V132.307H278.894V129.418H289.61ZM289.61 134.297V137.187H278.894V134.297H289.61Z" fill="#4697CD"/>
<path d="M295.507 134.661C295.507 133.551 295.731 132.582 296.177 131.752C296.637 130.923 297.268 130.285 298.072 129.839C298.888 129.392 299.819 129.169 300.866 129.169C302.205 129.169 303.321 129.52 304.214 130.221C305.12 130.923 305.713 131.912 305.994 133.187H302.511C302.218 132.371 301.65 131.963 300.808 131.963C300.209 131.963 299.73 132.199 299.373 132.671C299.016 133.13 298.837 133.793 298.837 134.661C298.837 135.528 299.016 136.198 299.373 136.67C299.73 137.129 300.209 137.359 300.808 137.359C301.65 137.359 302.218 136.951 302.511 136.134H305.994C305.713 137.385 305.12 138.367 304.214 139.081C303.309 139.796 302.192 140.153 300.866 140.153C299.819 140.153 298.888 139.93 298.072 139.483C297.268 139.037 296.637 138.399 296.177 137.57C295.731 136.74 295.507 135.771 295.507 134.661Z" fill="#4697CD"/>
<rect width="292" height="53" rx="16" transform="matrix(-1 0 0 1 315.5 0)" fill="#FED26F"/>
<path d="M81.524 30.5279H85.284V31.9999H79.7V20.8799H81.524V30.5279Z" fill="#624B25"/>
<path d="M94.8893 27.3759C94.8893 27.7066 94.868 28.0053 94.8253 28.2719H88.0893C88.1427 28.9759 88.404 29.5413 88.8733 29.9679C89.3427 30.3946 89.9187 30.6079 90.6013 30.6079C91.5827 30.6079 92.276 30.1973 92.6813 29.3759H94.6493C94.3827 30.1866 93.8973 30.8533 93.1933 31.3759C92.5 31.8879 91.636 32.1439 90.6013 32.1439C89.7587 32.1439 89.0013 31.9573 88.3293 31.5839C87.668 31.1999 87.1453 30.6666 86.7613 29.9839C86.388 29.2906 86.2013 28.4906 86.2013 27.5839C86.2013 26.6773 86.3827 25.8826 86.7453 25.1999C87.1187 24.5066 87.636 23.9733 88.2973 23.5999C88.9693 23.2266 89.7373 23.0399 90.6013 23.0399C91.4333 23.0399 92.1747 23.2213 92.8253 23.5839C93.476 23.9466 93.9827 24.4586 94.3453 25.1199C94.708 25.7706 94.8893 26.5226 94.8893 27.3759ZM92.9853 26.7999C92.9747 26.1279 92.7347 25.5893 92.2653 25.1839C91.796 24.7786 91.2147 24.5759 90.5213 24.5759C89.892 24.5759 89.3533 24.7786 88.9053 25.1839C88.4573 25.5786 88.1907 26.1173 88.1053 26.7999H92.9853Z" fill="#624B25"/>
<path d="M98.8123 24.6719V29.5519C98.8123 29.8826 98.887 30.1226 99.0363 30.2719C99.1963 30.4106 99.463 30.4799 99.8363 30.4799H100.956V31.9999H99.5163C98.695 31.9999 98.0657 31.8079 97.6283 31.4239C97.191 31.0399 96.9723 30.4159 96.9723 29.5519V24.6719H95.9323V23.1839H96.9723V20.9919H98.8123V23.1839H100.956V24.6719H98.8123Z" fill="#624B25"/>
<path d="M102.925 20.8799H104.909L103.229 24.6879H101.949L102.925 20.8799Z" fill="#624B25"/>
<path d="M109.712 32.1439C109.019 32.1439 108.395 32.0213 107.84 31.7759C107.296 31.5199 106.864 31.1786 106.544 30.7519C106.224 30.3146 106.054 29.8293 106.032 29.2959H107.92C107.952 29.6693 108.128 29.9839 108.448 30.2399C108.779 30.4853 109.19 30.6079 109.68 30.6079C110.192 30.6079 110.587 30.5119 110.864 30.3199C111.152 30.1173 111.296 29.8613 111.296 29.5519C111.296 29.2213 111.136 28.9759 110.816 28.8159C110.507 28.6559 110.011 28.4799 109.328 28.2879C108.667 28.1066 108.128 27.9306 107.712 27.7599C107.296 27.5893 106.934 27.3279 106.624 26.9759C106.326 26.6239 106.176 26.1599 106.176 25.5839C106.176 25.1146 106.315 24.6879 106.592 24.3039C106.87 23.9093 107.264 23.5999 107.776 23.3759C108.299 23.1519 108.896 23.0399 109.568 23.0399C110.571 23.0399 111.376 23.2959 111.984 23.8079C112.603 24.3093 112.934 24.9973 112.976 25.8719H111.152C111.12 25.4773 110.96 25.1626 110.672 24.9279C110.384 24.6933 109.995 24.5759 109.504 24.5759C109.024 24.5759 108.656 24.6666 108.4 24.8479C108.144 25.0293 108.016 25.2693 108.016 25.5679C108.016 25.8026 108.102 25.9999 108.272 26.1599C108.443 26.3199 108.651 26.4479 108.896 26.5439C109.142 26.6293 109.504 26.7413 109.984 26.8799C110.624 27.0506 111.147 27.2266 111.552 27.4079C111.968 27.5786 112.326 27.8346 112.624 28.1759C112.923 28.5173 113.078 28.9706 113.088 29.5359C113.088 30.0373 112.95 30.4853 112.672 30.8799C112.395 31.2746 112 31.5839 111.488 31.8079C110.987 32.0319 110.395 32.1439 109.712 32.1439Z" fill="#624B25"/>
<path d="M121.04 20.1599V31.9999H119.216V20.1599H121.04Z" fill="#624B25"/>
<path d="M131.514 27.3759C131.514 27.7066 131.493 28.0053 131.45 28.2719H124.714C124.768 28.9759 125.029 29.5413 125.498 29.9679C125.968 30.3946 126.544 30.6079 127.226 30.6079C128.208 30.6079 128.901 30.1973 129.306 29.3759H131.274C131.008 30.1866 130.522 30.8533 129.818 31.3759C129.125 31.8879 128.261 32.1439 127.226 32.1439C126.384 32.1439 125.626 31.9573 124.954 31.5839C124.293 31.1999 123.77 30.6666 123.386 29.9839C123.013 29.2906 122.826 28.4906 122.826 27.5839C122.826 26.6773 123.008 25.8826 123.37 25.1999C123.744 24.5066 124.261 23.9733 124.922 23.5999C125.594 23.2266 126.362 23.0399 127.226 23.0399C128.058 23.0399 128.8 23.2213 129.45 23.5839C130.101 23.9466 130.608 24.4586 130.97 25.1199C131.333 25.7706 131.514 26.5226 131.514 27.3759ZM129.61 26.7999C129.6 26.1279 129.36 25.5893 128.89 25.1839C128.421 24.7786 127.84 24.5759 127.146 24.5759C126.517 24.5759 125.978 24.7786 125.53 25.1839C125.082 25.5786 124.816 26.1173 124.73 26.7999H129.61Z" fill="#624B25"/>
<path d="M132.701 27.5519C132.701 26.6666 132.883 25.8826 133.245 25.1999C133.619 24.5173 134.12 23.9893 134.749 23.6159C135.389 23.2319 136.093 23.0399 136.861 23.0399C137.555 23.0399 138.157 23.1786 138.669 23.4559C139.192 23.7226 139.608 24.0586 139.917 24.4639V23.1839H141.757V31.9999H139.917V30.6879C139.608 31.1039 139.187 31.4506 138.653 31.7279C138.12 32.0053 137.512 32.1439 136.829 32.1439C136.072 32.1439 135.379 31.9519 134.749 31.5679C134.12 31.1733 133.619 30.6293 133.245 29.9359C132.883 29.2319 132.701 28.4373 132.701 27.5519ZM139.917 27.5839C139.917 26.9759 139.789 26.4479 139.533 25.9999C139.288 25.5519 138.963 25.2106 138.557 24.9759C138.152 24.7413 137.715 24.6239 137.245 24.6239C136.776 24.6239 136.339 24.7413 135.933 24.9759C135.528 25.1999 135.197 25.5359 134.941 25.9839C134.696 26.4213 134.573 26.9439 134.573 27.5519C134.573 28.1599 134.696 28.6933 134.941 29.1519C135.197 29.6106 135.528 29.9626 135.933 30.2079C136.349 30.4426 136.787 30.5599 137.245 30.5599C137.715 30.5599 138.152 30.4426 138.557 30.2079C138.963 29.9733 139.288 29.6319 139.533 29.1839C139.789 28.7253 139.917 28.1919 139.917 27.5839Z" fill="#624B25"/>
<path d="M145.977 24.4639C146.244 24.0159 146.596 23.6693 147.033 23.4239C147.481 23.1679 148.009 23.0399 148.617 23.0399V24.9279H148.153C147.438 24.9279 146.894 25.1093 146.521 25.4719C146.158 25.8346 145.977 26.4639 145.977 27.3599V31.9999H144.153V23.1839H145.977V24.4639Z" fill="#624B25"/>
<path d="M154.742 23.0399C155.435 23.0399 156.054 23.1839 156.598 23.4719C157.152 23.7599 157.584 24.1866 157.894 24.7519C158.203 25.3173 158.358 25.9999 158.358 26.7999V31.9999H156.55V27.0719C156.55 26.2826 156.352 25.6799 155.958 25.2639C155.563 24.8373 155.024 24.6239 154.342 24.6239C153.659 24.6239 153.115 24.8373 152.71 25.2639C152.315 25.6799 152.118 26.2826 152.118 27.0719V31.9999H150.294V23.1839H152.118V24.1919C152.416 23.8293 152.795 23.5466 153.254 23.3439C153.723 23.1413 154.219 23.0399 154.742 23.0399Z" fill="#624B25"/>
<path d="M166.969 24.6719V29.5519C166.969 29.8826 167.043 30.1226 167.193 30.2719C167.353 30.4106 167.619 30.4799 167.993 30.4799H169.113V31.9999H167.673C166.851 31.9999 166.222 31.8079 165.785 31.4239C165.347 31.0399 165.129 30.4159 165.129 29.5519V24.6719H164.089V23.1839H165.129V20.9919H166.969V23.1839H169.113V24.6719H166.969Z" fill="#624B25"/>
<path d="M174.618 32.1439C173.786 32.1439 173.034 31.9573 172.362 31.5839C171.69 31.1999 171.162 30.6666 170.778 29.9839C170.394 29.2906 170.202 28.4906 170.202 27.5839C170.202 26.6879 170.399 25.8933 170.794 25.1999C171.188 24.5066 171.727 23.9733 172.41 23.5999C173.092 23.2266 173.855 23.0399 174.698 23.0399C175.54 23.0399 176.303 23.2266 176.986 23.5999C177.668 23.9733 178.207 24.5066 178.602 25.1999C178.996 25.8933 179.194 26.6879 179.194 27.5839C179.194 28.4799 178.991 29.2746 178.586 29.9679C178.18 30.6613 177.626 31.1999 176.922 31.5839C176.228 31.9573 175.46 32.1439 174.618 32.1439ZM174.618 30.5599C175.087 30.5599 175.524 30.4479 175.93 30.2239C176.346 29.9999 176.682 29.6639 176.938 29.2159C177.194 28.7679 177.322 28.2239 177.322 27.5839C177.322 26.9439 177.199 26.4053 176.954 25.9679C176.708 25.5199 176.383 25.1839 175.978 24.9599C175.572 24.7359 175.135 24.6239 174.666 24.6239C174.196 24.6239 173.759 24.7359 173.354 24.9599C172.959 25.1839 172.644 25.5199 172.41 25.9679C172.175 26.4053 172.058 26.9439 172.058 27.5839C172.058 28.5333 172.298 29.2693 172.778 29.7919C173.268 30.3039 173.882 30.5599 174.618 30.5599Z" fill="#624B25"/>
<path d="M188.353 32.1439C187.66 32.1439 187.036 32.0213 186.481 31.7759C185.937 31.5199 185.505 31.1786 185.185 30.7519C184.865 30.3146 184.694 29.8293 184.673 29.2959H186.561C186.593 29.6693 186.769 29.9839 187.089 30.2399C187.42 30.4853 187.83 30.6079 188.321 30.6079C188.833 30.6079 189.228 30.5119 189.505 30.3199C189.793 30.1173 189.937 29.8613 189.937 29.5519C189.937 29.2213 189.777 28.9759 189.457 28.8159C189.148 28.6559 188.652 28.4799 187.969 28.2879C187.308 28.1066 186.769 27.9306 186.353 27.7599C185.937 27.5893 185.574 27.3279 185.265 26.9759C184.966 26.6239 184.817 26.1599 184.817 25.5839C184.817 25.1146 184.956 24.6879 185.233 24.3039C185.51 23.9093 185.905 23.5999 186.417 23.3759C186.94 23.1519 187.537 23.0399 188.209 23.0399C189.212 23.0399 190.017 23.2959 190.625 23.8079C191.244 24.3093 191.574 24.9973 191.617 25.8719H189.793C189.761 25.4773 189.601 25.1626 189.313 24.9279C189.025 24.6933 188.636 24.5759 188.145 24.5759C187.665 24.5759 187.297 24.6666 187.041 24.8479C186.785 25.0293 186.657 25.2693 186.657 25.5679C186.657 25.8026 186.742 25.9999 186.913 26.1599C187.084 26.3199 187.292 26.4479 187.537 26.5439C187.782 26.6293 188.145 26.7413 188.625 26.8799C189.265 27.0506 189.788 27.2266 190.193 27.4079C190.609 27.5786 190.966 27.8346 191.265 28.1759C191.564 28.5173 191.718 28.9706 191.729 29.5359C191.729 30.0373 191.59 30.4853 191.313 30.8799C191.036 31.2746 190.641 31.5839 190.129 31.8079C189.628 32.0319 189.036 32.1439 188.353 32.1439Z" fill="#624B25"/>
<path d="M197.524 32.1439C196.692 32.1439 195.94 31.9573 195.268 31.5839C194.596 31.1999 194.068 30.6666 193.684 29.9839C193.3 29.2906 193.108 28.4906 193.108 27.5839C193.108 26.6879 193.305 25.8933 193.7 25.1999C194.095 24.5066 194.633 23.9733 195.316 23.5999C195.999 23.2266 196.761 23.0399 197.604 23.0399C198.447 23.0399 199.209 23.2266 199.892 23.5999C200.575 23.9733 201.113 24.5066 201.508 25.1999C201.903 25.8933 202.1 26.6879 202.1 27.5839C202.1 28.4799 201.897 29.2746 201.492 29.9679C201.087 30.6613 200.532 31.1999 199.828 31.5839C199.135 31.9573 198.367 32.1439 197.524 32.1439ZM197.524 30.5599C197.993 30.5599 198.431 30.4479 198.836 30.2239C199.252 29.9999 199.588 29.6639 199.844 29.2159C200.1 28.7679 200.228 28.2239 200.228 27.5839C200.228 26.9439 200.105 26.4053 199.86 25.9679C199.615 25.5199 199.289 25.1839 198.884 24.9599C198.479 24.7359 198.041 24.6239 197.572 24.6239C197.103 24.6239 196.665 24.7359 196.26 24.9599C195.865 25.1839 195.551 25.5199 195.316 25.9679C195.081 26.4053 194.964 26.9439 194.964 27.5839C194.964 28.5333 195.204 29.2693 195.684 29.7919C196.175 30.3039 196.788 30.5599 197.524 30.5599Z" fill="#624B25"/>
<path d="M205.727 20.1599V31.9999H203.903V20.1599H205.727Z" fill="#624B25"/>
<path d="M211.53 30.3679L214.026 23.1839H215.962L212.602 31.9999H210.426L207.082 23.1839H209.034L211.53 30.3679Z" fill="#624B25"/>
<path d="M225.421 27.3759C225.421 27.7066 225.399 28.0053 225.357 28.2719H218.621C218.674 28.9759 218.935 29.5413 219.405 29.9679C219.874 30.3946 220.45 30.6079 221.133 30.6079C222.114 30.6079 222.807 30.1973 223.213 29.3759H225.181C224.914 30.1866 224.429 30.8533 223.725 31.3759C223.031 31.8879 222.167 32.1439 221.133 32.1439C220.29 32.1439 219.533 31.9573 218.861 31.5839C218.199 31.1999 217.677 30.6666 217.293 29.9839C216.919 29.2906 216.733 28.4906 216.733 27.5839C216.733 26.6773 216.914 25.8826 217.277 25.1999C217.65 24.5066 218.167 23.9733 218.829 23.5999C219.501 23.2266 220.269 23.0399 221.133 23.0399C221.965 23.0399 222.706 23.2213 223.357 23.5839C224.007 23.9466 224.514 24.4586 224.877 25.1199C225.239 25.7706 225.421 26.5226 225.421 27.3759ZM223.517 26.7999C223.506 26.1279 223.266 25.5893 222.797 25.1839C222.327 24.7786 221.746 24.5759 221.053 24.5759C220.423 24.5759 219.885 24.7786 219.437 25.1839C218.989 25.5786 218.722 26.1173 218.637 26.7999H223.517Z" fill="#624B25"/>
<path d="M235.068 24.6719H233.436V31.9999H231.596V24.6719H230.556V23.1839H231.596V22.5599C231.596 21.5466 231.862 20.8106 232.396 20.3519C232.94 19.8826 233.788 19.6479 234.94 19.6479V21.1679C234.385 21.1679 233.996 21.2746 233.772 21.4879C233.548 21.6906 233.436 22.0479 233.436 22.5599V23.1839H235.068V24.6719Z" fill="#624B25"/>
<path d="M240.508 32.1439C239.676 32.1439 238.924 31.9573 238.252 31.5839C237.58 31.1999 237.052 30.6666 236.668 29.9839C236.284 29.2906 236.092 28.4906 236.092 27.5839C236.092 26.6879 236.29 25.8933 236.684 25.1999C237.079 24.5066 237.618 23.9733 238.3 23.5999C238.983 23.2266 239.746 23.0399 240.588 23.0399C241.431 23.0399 242.194 23.2266 242.876 23.5999C243.559 23.9733 244.098 24.5066 244.492 25.1999C244.887 25.8933 245.084 26.6879 245.084 27.5839C245.084 28.4799 244.882 29.2746 244.476 29.9679C244.071 30.6613 243.516 31.1999 242.812 31.5839C242.119 31.9573 241.351 32.1439 240.508 32.1439ZM240.508 30.5599C240.978 30.5599 241.415 30.4479 241.82 30.2239C242.236 29.9999 242.572 29.6639 242.828 29.2159C243.084 28.7679 243.212 28.2239 243.212 27.5839C243.212 26.9439 243.09 26.4053 242.844 25.9679C242.599 25.5199 242.274 25.1839 241.868 24.9599C241.463 24.7359 241.026 24.6239 240.556 24.6239C240.087 24.6239 239.65 24.7359 239.244 24.9599C238.85 25.1839 238.535 25.5199 238.3 25.9679C238.066 26.4053 237.948 26.9439 237.948 27.5839C237.948 28.5333 238.188 29.2693 238.668 29.7919C239.159 30.3039 239.772 30.5599 240.508 30.5599Z" fill="#624B25"/>
<path d="M248.711 24.4639C248.978 24.0159 249.33 23.6693 249.767 23.4239C250.215 23.1679 250.743 23.0399 251.351 23.0399V24.9279H250.887C250.173 24.9279 249.629 25.1093 249.255 25.4719C248.893 25.8346 248.711 26.4639 248.711 27.3599V31.9999H246.887V23.1839H248.711V24.4639Z" fill="#624B25"/>
<path d="M260.96 27.5359L263.808 31.9999H261.744L259.84 29.0079L258.048 31.9999H256.144L258.992 27.6639L256.144 23.1839H258.208L260.112 26.1759L261.904 23.1839H263.808L260.96 27.5359Z" fill="#624B25"/>
<path d="M152.5 69C157.956 64.8788 162.721 55.9495 161.481 52H143.5C156.893 52 153.12 63.3333 152.5 69Z" fill="#FED26F"/>
</g>
<defs>
<clipPath id="clip0_47_117">
<rect width="348" height="387" fill="white"/>
</clipPath>
</defs>
</svg>
