<svg width="336" height="428" viewBox="0 0 336 428" fill="none" xmlns="http://www.w3.org/2000/svg">
<rect x="196" y="249" width="140" height="140" rx="16" fill="#E5F6FF"/>
<rect y="74" width="140" height="140" rx="16" fill="#E5F6FF"/>
<rect x="196" y="74" width="140" height="140" rx="16" fill="#E5F6FF"/>
<rect y="249" width="140" height="140" rx="16" fill="#E5F6FF"/>
<path d="M238.89 303.03V291.9H258.28V343H245.82V303.03H238.89Z" fill="#A1DFFF"/>
<path d="M266.468 316.75C266.468 308.723 268.008 302.4 271.088 297.78C274.215 293.16 279.232 290.85 286.138 290.85C293.045 290.85 298.038 293.16 301.118 297.78C304.245 302.4 305.808 308.723 305.808 316.75C305.808 324.87 304.245 331.24 301.118 335.86C298.038 340.48 293.045 342.79 286.138 342.79C279.232 342.79 274.215 340.48 271.088 335.86C268.008 331.24 266.468 324.87 266.468 316.75ZM294.048 316.75C294.048 312.037 293.535 308.42 292.508 305.9C291.482 303.333 289.358 302.05 286.138 302.05C282.918 302.05 280.795 303.333 279.768 305.9C278.742 308.42 278.228 312.037 278.228 316.75C278.228 319.923 278.415 322.56 278.788 324.66C279.162 326.713 279.908 328.393 281.028 329.7C282.195 330.96 283.898 331.59 286.138 331.59C288.378 331.59 290.058 330.96 291.178 329.7C292.345 328.393 293.115 326.713 293.488 324.66C293.862 322.56 294.048 319.923 294.048 316.75Z" fill="#A1DFFF"/>
<path d="M45.73 159.41C47.3167 158.15 48.04 157.567 47.9 157.66C52.4733 153.88 56.0667 150.777 58.68 148.35C61.34 145.923 63.58 143.38 65.4 140.72C67.22 138.06 68.13 135.47 68.13 132.95C68.13 131.037 67.6867 129.543 66.8 128.47C65.9133 127.397 64.5833 126.86 62.81 126.86C61.0367 126.86 59.6367 127.537 58.61 128.89C57.63 130.197 57.14 132.063 57.14 134.49H45.59C45.6833 130.523 46.5233 127.21 48.11 124.55C49.7433 121.89 51.8667 119.93 54.48 118.67C57.14 117.41 60.08 116.78 63.3 116.78C68.8533 116.78 73.03 118.203 75.83 121.05C78.6767 123.897 80.1 127.607 80.1 132.18C80.1 137.173 78.3967 141.817 74.99 146.11C71.5833 150.357 67.2433 154.51 61.97 158.57H80.87V168.3H45.73V159.41Z" fill="#A1DFFF"/>
<path d="M81.96 304.29V314.86H42.76V304.29H81.96ZM81.96 322.14V332.71H42.76V322.14H81.96Z" fill="#A1DFFF"/>
<path d="M277.44 166L269.95 155.15L263.65 166H250.7L263.58 146.05L250.35 126.94H263.79L271.28 137.72L277.58 126.94H290.53L277.44 146.61L290.88 166H277.44Z" fill="#A1DFFF"/>
<path d="M86.4363 243.198C91.6045 224.248 90.3516 196.736 89.0792 185.349L95.7352 163.913L147.613 110.469L199.98 117.81L246.474 176.931C246.768 183.098 247.531 199.484 248.236 215.693C249.117 235.955 255.969 250.735 255.577 268.354C255.264 282.449 244.092 288.191 238.546 289.301C240.817 281.078 240.34 271.91 239.818 268.354C238.8 281.431 233.652 288.876 231.205 290.965C175.451 302.632 124.056 295.826 105.328 290.965C98.4367 287.519 97.4318 273.346 97.7907 266.69C94.8151 270.996 95.1152 283.558 95.6373 289.301C78.6057 283.525 79.9761 266.885 86.4363 243.198Z" fill="black"/>
<path d="M65 427.804L71.8231 385.323L109.634 395.405L103.285 427.804H65Z" fill="#FC9895"/>
<path d="M271.336 427.804L264.513 385.323L226.702 395.405L233.051 427.804H271.336Z" fill="#FC9895"/>
<path d="M71.8735 385.323L109.634 395.455L107.93 404.209C93.9218 405.547 76.4751 402.078 69.5027 400.176L71.8735 385.323Z" fill="#DC657C"/>
<path d="M264.463 385.323L226.702 395.455L228.407 404.209C242.415 405.547 259.861 402.078 266.834 400.176L264.463 385.323Z" fill="#DC657C"/>
<path d="M94.8542 316.903C100.022 308.916 125.85 295.826 138.118 290.279C154.921 289.137 190.564 287.539 198.708 290.279C208.887 293.705 227.289 303.885 240.014 315.337C250.194 324.499 265.137 364.05 271.336 382.68C258.572 391.999 239.394 397.591 231.4 399.223H226.604L224.353 428H112.179L109.537 399.223H105.034C91.0955 398.205 72.798 387.379 65.3916 382.093C70.6773 359.776 88.394 326.887 94.8542 316.903Z" fill="#30AC45"/>
<path d="M148.983 276.478L148.396 281.372L147.711 283.428L166.113 297.033L174.53 294.978L188.136 281.568L187.353 276.38L185.298 263.362L150.549 262.285L148.983 276.478Z" fill="#FC9895"/>
<path d="M185.298 263.362L150.549 262.285L149.62 270.703C151.92 272.954 159.711 279.023 168.56 278.631C177.408 278.24 183.852 272.628 186.457 270.703L185.298 263.362Z" fill="#DC657C"/>
<path d="M150.158 390.787L161.023 316.54L174.53 312.303L186.374 390.787L168.168 410.381L150.158 390.787Z" fill="#FED26F"/>
<path d="M167.972 319.351C161.943 319.351 156.977 312.825 155.248 309.562L168.56 296.446L182.557 308.192C180.208 311.911 174.002 319.351 167.972 319.351Z" fill="#FFC543"/>
<path d="M253.13 197.389C247.179 184.155 234.989 188.09 229.638 191.712C219.524 202.413 203.504 224.776 220.34 228.613C241.384 233.409 260.569 213.931 253.13 197.389Z" fill="#FC9895"/>
<path d="M84.8401 197.389C90.7913 184.155 102.981 188.09 108.332 191.712C118.446 202.413 134.466 224.776 117.631 228.613C96.586 233.409 77.401 213.931 84.8401 197.389Z" fill="#FC9895"/>
<path d="M240.503 197.389C234.944 195.745 230.03 204.991 228.268 209.82C224.646 214.486 220.437 223.034 232.575 219.902C247.747 215.987 247.453 199.445 240.503 197.389Z" fill="#DC657C"/>
<path d="M97.4671 197.389C103.027 195.745 107.941 204.991 109.702 209.82C113.324 214.486 117.533 223.034 105.396 219.902C90.2238 215.987 90.5175 199.445 97.4671 197.389Z" fill="#DC657C"/>
<path d="M133.322 256.51C108.264 241.71 105.784 198.466 107.677 178.693L110.222 140.813L148.102 108.316L225.723 131.123C230.128 150.699 235.903 197.643 223.765 228.809C208.594 267.766 164.644 275.01 133.322 256.51Z" fill="#FC9895"/>
<path d="M246.376 177.029C173.356 179.672 159.946 138.692 153.877 117.81C144.481 179.868 101.739 182.609 89.0791 185.154C85.9469 148.546 98.0843 125.739 114.92 107.729C128.389 93.3203 149.048 91.7411 157.695 92.7525C188.919 80.2236 219.067 101.366 232.966 122.313C244.086 139.071 246.539 165.773 246.376 177.029Z" fill="#1E1F36"/>
<path d="M146.732 225.971C141.877 228.79 145.557 235.955 148.004 239.185C163.078 256.999 177.173 250.05 184.612 244.373C192.051 238.695 195.184 229.494 190.779 225.971C186.374 222.447 152.8 222.447 146.732 225.971Z" fill="black"/>
<path d="M152.115 243.475C165.603 255.737 177.854 249.53 184.612 244.372C184.845 244.195 185.074 244.014 185.298 243.83C182.165 240.546 179.523 237.129 168.266 236.64C159.261 236.248 153.747 241.033 152.115 243.475Z" fill="#C54C67"/>
<path d="M156.324 230.767C150.843 230.062 148.494 226.902 148.004 225.41C155.639 222.751 180.855 222.639 188.821 225.074C184.025 233.084 163.176 231.648 156.324 230.767Z" fill="white"/>
<rect x="127.355" y="182.707" width="11.5501" height="23.6876" rx="5.67718" fill="black"/>
<rect x="195.379" y="182.315" width="11.5501" height="23.6876" rx="5.67718" fill="black"/>
<path d="M133.027 176.972C128.143 177.262 125.743 178.583 123.824 179.774C122.6 180.533 122.404 178.635 124.554 176.717C127.204 174.353 135.378 171.047 140.107 173.316C144.837 175.584 143.38 179.174 141.338 178.734C138.601 178.143 139.132 176.61 133.027 176.972Z" fill="black"/>
<path d="M201.026 176.972C205.91 177.262 208.31 178.583 210.229 179.774C211.453 180.533 211.649 178.635 209.499 176.717C206.849 174.353 198.675 171.047 193.946 173.316C189.216 175.584 190.673 179.174 192.715 178.734C195.452 178.143 194.921 176.61 201.026 176.972Z" fill="black"/>
<path fill-rule="evenodd" clip-rule="evenodd" d="M132.931 218.531C147.107 218.531 158.38 207.501 158.38 194.159C158.38 180.817 147.107 169.786 132.931 169.786C118.754 169.786 107.481 180.817 107.481 194.159C107.481 207.501 118.754 218.531 132.931 218.531ZM132.931 221.859C148.824 221.859 161.708 209.457 161.708 194.159C161.708 178.86 148.824 166.458 132.931 166.458C117.037 166.458 104.153 178.86 104.153 194.159C104.153 209.457 117.037 221.859 132.931 221.859Z" fill="white"/>
<path fill-rule="evenodd" clip-rule="evenodd" d="M200.665 218.531C214.841 218.531 226.114 207.501 226.114 194.159C226.114 180.817 214.841 169.786 200.665 169.786C186.489 169.786 175.215 180.817 175.215 194.159C175.215 207.501 186.489 218.531 200.665 218.531ZM200.665 221.859C216.558 221.859 229.442 209.457 229.442 194.159C229.442 178.86 216.558 166.458 200.665 166.458C184.772 166.458 171.887 178.86 171.887 194.159C171.887 209.457 184.772 221.859 200.665 221.859Z" fill="white"/>
<path fill-rule="evenodd" clip-rule="evenodd" d="M101.276 182.955L108.715 184.717L107.813 188.527L100.374 186.765L101.276 182.955Z" fill="white"/>
<path fill-rule="evenodd" clip-rule="evenodd" d="M234.277 182.955L226.838 184.717L227.74 188.527L235.179 186.765L234.277 182.955Z" fill="white"/>
<path fill-rule="evenodd" clip-rule="evenodd" d="M173.845 196.606H160.142V192.69H173.845V196.606Z" fill="white"/>
<path d="M148.396 281.372L148.983 276.478L145.46 278.142C144.05 279.63 139.782 286.266 137.825 289.399C138.921 301.301 148.004 310.606 152.409 313.771C155.15 311.735 164.122 301.634 168.266 296.838L184.025 314.065C197.337 303.689 200.078 291.748 198.708 288.615C197.611 286.11 192.9 280.524 190.681 278.044L187.353 276.478L188.038 281.372C183.888 286.305 173.128 293.281 168.266 296.152C159.496 291.219 151.365 284.243 148.396 281.372Z" fill="#258C31"/>
<path d="M145.459 278.142L148.396 281.372L148.983 276.478L145.459 278.142Z" fill="#535353"/>
<path d="M109.634 399.223L99.2589 312.303C98.4759 316.61 102.783 372.044 105.034 399.223H109.634Z" fill="#258C31"/>
<path d="M226.604 399.223L237.371 313.086C236.588 331.41 233.064 378.145 231.4 399.223H226.604Z" fill="#258C31"/>
<path d="M188.038 281.372L187.353 276.478L190.681 278.044L188.038 281.372Z" fill="#535353"/>
<rect x="28" width="266" height="53" rx="16" fill="#FED26F"/>
<path d="M165 69C159.544 64.8788 154.779 55.9495 156.019 52H174C160.607 52 164.38 63.3333 165 69Z" fill="#FED26F"/>
<path d="M59.646 29.712H62.936V31H58.05V21.27H59.646V29.712Z" fill="#624B25"/>
<path d="M71.3408 26.954C71.3408 27.2433 71.3221 27.5046 71.2848 27.738H65.3908C65.4374 28.354 65.6661 28.8486 66.0768 29.222C66.4874 29.5953 66.9914 29.782 67.5888 29.782C68.4474 29.782 69.0541 29.4226 69.4088 28.704H71.1308C70.8974 29.4133 70.4728 29.9966 69.8568 30.454C69.2501 30.902 68.4941 31.126 67.5888 31.126C66.8514 31.126 66.1888 30.9626 65.6008 30.636C65.0221 30.3 64.5648 29.8333 64.2288 29.236C63.9021 28.6293 63.7388 27.9293 63.7388 27.136C63.7388 26.3426 63.8974 25.6473 64.2148 25.05C64.5414 24.4433 64.9941 23.9766 65.5728 23.65C66.1608 23.3233 66.8328 23.16 67.5888 23.16C68.3168 23.16 68.9654 23.3186 69.5348 23.636C70.1041 23.9533 70.5474 24.4013 70.8648 24.98C71.1821 25.5493 71.3408 26.2073 71.3408 26.954ZM69.6748 26.45C69.6654 25.862 69.4554 25.3906 69.0448 25.036C68.6341 24.6813 68.1254 24.504 67.5188 24.504C66.9681 24.504 66.4968 24.6813 66.1048 25.036C65.7128 25.3813 65.4794 25.8526 65.4048 26.45H69.6748Z" fill="#624B25"/>
<path d="M74.7734 24.588V28.858C74.7734 29.1473 74.8387 29.3573 74.9694 29.488C75.1094 29.6093 75.3427 29.67 75.6694 29.67H76.6494V31H75.3894C74.6707 31 74.12 30.832 73.7374 30.496C73.3547 30.16 73.1634 29.614 73.1634 28.858V24.588H72.2534V23.286H73.1634V21.368H74.7734V23.286H76.6494V24.588H74.7734Z" fill="#624B25"/>
<path d="M78.3724 21.27H80.1084L78.6384 24.602H77.5184L78.3724 21.27Z" fill="#624B25"/>
<path d="M84.311 31.126C83.7043 31.126 83.1583 31.0186 82.673 30.804C82.197 30.58 81.819 30.2813 81.539 29.908C81.259 29.5253 81.1097 29.1006 81.091 28.634H82.743C82.771 28.9606 82.925 29.236 83.205 29.46C83.4943 29.6746 83.8537 29.782 84.283 29.782C84.731 29.782 85.0763 29.698 85.319 29.53C85.571 29.3526 85.697 29.1286 85.697 28.858C85.697 28.5686 85.557 28.354 85.277 28.214C85.0063 28.074 84.5723 27.92 83.975 27.752C83.3963 27.5933 82.925 27.4393 82.561 27.29C82.197 27.1406 81.8797 26.912 81.609 26.604C81.3477 26.296 81.217 25.89 81.217 25.386C81.217 24.9753 81.3383 24.602 81.581 24.266C81.8237 23.9206 82.169 23.65 82.617 23.454C83.0743 23.258 83.597 23.16 84.185 23.16C85.0623 23.16 85.767 23.384 86.299 23.832C86.8403 24.2706 87.1297 24.8726 87.167 25.638H85.571C85.543 25.2926 85.403 25.0173 85.151 24.812C84.899 24.6066 84.5583 24.504 84.129 24.504C83.709 24.504 83.387 24.5833 83.163 24.742C82.939 24.9006 82.827 25.1106 82.827 25.372C82.827 25.5773 82.9017 25.75 83.051 25.89C83.2003 26.03 83.3823 26.142 83.597 26.226C83.8117 26.3006 84.129 26.3986 84.549 26.52C85.109 26.6693 85.5663 26.8233 85.921 26.982C86.285 27.1313 86.5977 27.3553 86.859 27.654C87.1203 27.9526 87.2557 28.3493 87.265 28.844C87.265 29.2826 87.1437 29.6746 86.901 30.02C86.6583 30.3653 86.313 30.636 85.865 30.832C85.4263 31.028 84.9083 31.126 84.311 31.126Z" fill="#624B25"/>
<path d="M95.8322 31.098C95.1789 31.098 94.5909 30.986 94.0682 30.762C93.5456 30.5286 93.1349 30.202 92.8362 29.782C92.5376 29.362 92.3882 28.872 92.3882 28.312H94.0962C94.1336 28.732 94.2969 29.0773 94.5862 29.348C94.8849 29.6186 95.3002 29.754 95.8322 29.754C96.3829 29.754 96.8122 29.6233 97.1202 29.362C97.4282 29.0913 97.5822 28.746 97.5822 28.326C97.5822 27.9993 97.4842 27.7333 97.2882 27.528C97.1016 27.3226 96.8636 27.164 96.5742 27.052C96.2942 26.94 95.9022 26.8186 95.3982 26.688C94.7636 26.52 94.2456 26.352 93.8442 26.184C93.4522 26.0066 93.1162 25.736 92.8362 25.372C92.5562 25.008 92.4162 24.5226 92.4162 23.916C92.4162 23.356 92.5562 22.866 92.8362 22.446C93.1162 22.026 93.5082 21.704 94.0122 21.48C94.5162 21.256 95.0996 21.144 95.7622 21.144C96.7049 21.144 97.4749 21.382 98.0722 21.858C98.6789 22.3246 99.0149 22.9686 99.0802 23.79H97.3162C97.2882 23.4353 97.1202 23.132 96.8122 22.88C96.5042 22.628 96.0982 22.502 95.5942 22.502C95.1369 22.502 94.7636 22.6186 94.4742 22.852C94.1849 23.0853 94.0402 23.4213 94.0402 23.86C94.0402 24.1586 94.1289 24.406 94.3062 24.602C94.4929 24.7886 94.7262 24.938 95.0062 25.05C95.2862 25.162 95.6689 25.2833 96.1542 25.414C96.7982 25.5913 97.3209 25.7686 97.7222 25.946C98.1329 26.1233 98.4782 26.3986 98.7582 26.772C99.0476 27.136 99.1922 27.626 99.1922 28.242C99.1922 28.7366 99.0569 29.2033 98.7862 29.642C98.5249 30.0806 98.1376 30.4353 97.6242 30.706C97.1202 30.9673 96.5229 31.098 95.8322 31.098Z" fill="#624B25"/>
<path d="M104.421 31.126C103.693 31.126 103.035 30.9626 102.447 30.636C101.859 30.3 101.397 29.8333 101.061 29.236C100.725 28.6293 100.557 27.9293 100.557 27.136C100.557 26.352 100.73 25.6566 101.075 25.05C101.421 24.4433 101.892 23.9766 102.489 23.65C103.087 23.3233 103.754 23.16 104.491 23.16C105.229 23.16 105.896 23.3233 106.493 23.65C107.091 23.9766 107.562 24.4433 107.907 25.05C108.253 25.6566 108.425 26.352 108.425 27.136C108.425 27.92 108.248 28.6153 107.893 29.222C107.539 29.8286 107.053 30.3 106.437 30.636C105.831 30.9626 105.159 31.126 104.421 31.126ZM104.421 29.74C104.832 29.74 105.215 29.642 105.569 29.446C105.933 29.25 106.227 28.956 106.451 28.564C106.675 28.172 106.787 27.696 106.787 27.136C106.787 26.576 106.68 26.1046 106.465 25.722C106.251 25.33 105.966 25.036 105.611 24.84C105.257 24.644 104.874 24.546 104.463 24.546C104.053 24.546 103.67 24.644 103.315 24.84C102.97 25.036 102.695 25.33 102.489 25.722C102.284 26.1046 102.181 26.576 102.181 27.136C102.181 27.9666 102.391 28.6106 102.811 29.068C103.241 29.516 103.777 29.74 104.421 29.74Z" fill="#624B25"/>
<path d="M111.599 20.64V31H110.003V20.64H111.599Z" fill="#624B25"/>
<path d="M116.677 29.572L118.861 23.286H120.555L117.615 31H115.711L112.785 23.286H114.493L116.677 29.572Z" fill="#624B25"/>
<path d="M128.831 26.954C128.831 27.2433 128.812 27.5046 128.775 27.738H122.881C122.928 28.354 123.156 28.8486 123.567 29.222C123.978 29.5953 124.482 29.782 125.079 29.782C125.938 29.782 126.544 29.4226 126.899 28.704H128.621C128.388 29.4133 127.963 29.9966 127.347 30.454C126.74 30.902 125.984 31.126 125.079 31.126C124.342 31.126 123.679 30.9626 123.091 30.636C122.512 30.3 122.055 29.8333 121.719 29.236C121.392 28.6293 121.229 27.9293 121.229 27.136C121.229 26.3426 121.388 25.6473 121.705 25.05C122.032 24.4433 122.484 23.9766 123.063 23.65C123.651 23.3233 124.323 23.16 125.079 23.16C125.807 23.16 126.456 23.3186 127.025 23.636C127.594 23.9533 128.038 24.4013 128.355 24.98C128.672 25.5493 128.831 26.2073 128.831 26.954ZM127.165 26.45C127.156 25.862 126.946 25.3906 126.535 25.036C126.124 24.6813 125.616 24.504 125.009 24.504C124.458 24.504 123.987 24.6813 123.595 25.036C123.203 25.3813 122.97 25.8526 122.895 26.45H127.165Z" fill="#624B25"/>
<path d="M133.618 22.25V20.794H136.53V31H134.92V22.25H133.618Z" fill="#624B25"/>
<path d="M144.855 25.26V26.604H139.101V25.26H144.855Z" fill="#624B25"/>
<path d="M155.508 21.27L151.854 31H150.006L146.338 21.27H148.046L150.93 29.362L153.828 21.27H155.508Z" fill="#624B25"/>
<path d="M156.311 27.108C156.311 26.3333 156.47 25.6473 156.787 25.05C157.114 24.4526 157.552 23.9906 158.103 23.664C158.663 23.328 159.279 23.16 159.951 23.16C160.558 23.16 161.085 23.2813 161.533 23.524C161.99 23.7573 162.354 24.0513 162.625 24.406V23.286H164.235V31H162.625V29.852C162.354 30.216 161.986 30.5193 161.519 30.762C161.052 31.0046 160.52 31.126 159.923 31.126C159.26 31.126 158.654 30.958 158.103 30.622C157.552 30.2766 157.114 29.8006 156.787 29.194C156.47 28.578 156.311 27.8826 156.311 27.108ZM162.625 27.136C162.625 26.604 162.513 26.142 162.289 25.75C162.074 25.358 161.79 25.0593 161.435 24.854C161.08 24.6486 160.698 24.546 160.287 24.546C159.876 24.546 159.494 24.6486 159.139 24.854C158.784 25.05 158.495 25.344 158.271 25.736C158.056 26.1186 157.949 26.576 157.949 27.108C157.949 27.64 158.056 28.1066 158.271 28.508C158.495 28.9093 158.784 29.2173 159.139 29.432C159.503 29.6373 159.886 29.74 160.287 29.74C160.698 29.74 161.08 29.6373 161.435 29.432C161.79 29.2266 162.074 28.928 162.289 28.536C162.513 28.1346 162.625 27.668 162.625 27.136Z" fill="#624B25"/>
<path d="M167.927 24.406C168.161 24.014 168.469 23.7106 168.851 23.496C169.243 23.272 169.705 23.16 170.237 23.16V24.812H169.831C169.206 24.812 168.73 24.9706 168.403 25.288C168.086 25.6053 167.927 26.156 167.927 26.94V31H166.331V23.286H167.927V24.406Z" fill="#624B25"/>
<path d="M172.516 22.264C172.227 22.264 171.984 22.166 171.788 21.97C171.592 21.774 171.494 21.5313 171.494 21.242C171.494 20.9526 171.592 20.71 171.788 20.514C171.984 20.318 172.227 20.22 172.516 20.22C172.796 20.22 173.034 20.318 173.23 20.514C173.426 20.71 173.524 20.9526 173.524 21.242C173.524 21.5313 173.426 21.774 173.23 21.97C173.034 22.166 172.796 22.264 172.516 22.264ZM173.3 23.286V31H171.704V23.286H173.3Z" fill="#624B25"/>
<path d="M174.864 27.108C174.864 26.3333 175.022 25.6473 175.34 25.05C175.666 24.4526 176.105 23.9906 176.656 23.664C177.216 23.328 177.832 23.16 178.504 23.16C179.11 23.16 179.638 23.2813 180.086 23.524C180.543 23.7573 180.907 24.0513 181.178 24.406V23.286H182.788V31H181.178V29.852C180.907 30.216 180.538 30.5193 180.072 30.762C179.605 31.0046 179.073 31.126 178.476 31.126C177.813 31.126 177.206 30.958 176.656 30.622C176.105 30.2766 175.666 29.8006 175.34 29.194C175.022 28.578 174.864 27.8826 174.864 27.108ZM181.178 27.136C181.178 26.604 181.066 26.142 180.842 25.75C180.627 25.358 180.342 25.0593 179.988 24.854C179.633 24.6486 179.25 24.546 178.84 24.546C178.429 24.546 178.046 24.6486 177.692 24.854C177.337 25.05 177.048 25.344 176.824 25.736C176.609 26.1186 176.502 26.576 176.502 27.108C176.502 27.64 176.609 28.1066 176.824 28.508C177.048 28.9093 177.337 29.2173 177.692 29.432C178.056 29.6373 178.438 29.74 178.84 29.74C179.25 29.74 179.633 29.6373 179.988 29.432C180.342 29.2266 180.627 28.928 180.842 28.536C181.066 28.1346 181.178 27.668 181.178 27.136Z" fill="#624B25"/>
<path d="M186.48 24.434C186.751 24.0606 187.119 23.7573 187.586 23.524C188.062 23.2813 188.589 23.16 189.168 23.16C189.849 23.16 190.465 23.3233 191.016 23.65C191.567 23.9766 192.001 24.4433 192.318 25.05C192.635 25.6473 192.794 26.3333 192.794 27.108C192.794 27.8826 192.635 28.578 192.318 29.194C192.001 29.8006 191.562 30.2766 191.002 30.622C190.451 30.958 189.84 31.126 189.168 31.126C188.571 31.126 188.039 31.0093 187.572 30.776C187.115 30.5426 186.751 30.244 186.48 29.88V31H184.884V20.64H186.48V24.434ZM191.17 27.108C191.17 26.576 191.058 26.1186 190.834 25.736C190.619 25.344 190.33 25.05 189.966 24.854C189.611 24.6486 189.229 24.546 188.818 24.546C188.417 24.546 188.034 24.6486 187.67 24.854C187.315 25.0593 187.026 25.358 186.802 25.75C186.587 26.142 186.48 26.604 186.48 27.136C186.48 27.668 186.587 28.1346 186.802 28.536C187.026 28.928 187.315 29.2266 187.67 29.432C188.034 29.6373 188.417 29.74 188.818 29.74C189.229 29.74 189.611 29.6373 189.966 29.432C190.33 29.2173 190.619 28.9093 190.834 28.508C191.058 28.1066 191.17 27.64 191.17 27.108Z" fill="#624B25"/>
<path d="M195.968 20.64V31H194.372V20.64H195.968Z" fill="#624B25"/>
<path d="M205.134 26.954C205.134 27.2433 205.115 27.5046 205.078 27.738H199.184C199.23 28.354 199.459 28.8486 199.87 29.222C200.28 29.5953 200.784 29.782 201.382 29.782C202.24 29.782 202.847 29.4226 203.202 28.704H204.924C204.69 29.4133 204.266 29.9966 203.65 30.454C203.043 30.902 202.287 31.126 201.382 31.126C200.644 31.126 199.982 30.9626 199.394 30.636C198.815 30.3 198.358 29.8333 198.022 29.236C197.695 28.6293 197.532 27.9293 197.532 27.136C197.532 26.3426 197.69 25.6473 198.008 25.05C198.334 24.4433 198.787 23.9766 199.366 23.65C199.954 23.3233 200.626 23.16 201.382 23.16C202.11 23.16 202.758 23.3186 203.328 23.636C203.897 23.9533 204.34 24.4013 204.658 24.98C204.975 25.5493 205.134 26.2073 205.134 26.954ZM203.468 26.45C203.458 25.862 203.248 25.3906 202.838 25.036C202.427 24.6813 201.918 24.504 201.312 24.504C200.761 24.504 200.29 24.6813 199.898 25.036C199.506 25.3813 199.272 25.8526 199.198 26.45H203.468Z" fill="#624B25"/>
<path d="M211.937 22.558V25.414H215.297V26.716H211.937V29.698H215.717V31H210.341V21.256H215.717V22.558H211.937Z" fill="#624B25"/>
<path d="M217.151 27.108C217.151 26.3333 217.31 25.6473 217.627 25.05C217.954 24.4526 218.392 23.9906 218.943 23.664C219.503 23.328 220.124 23.16 220.805 23.16C221.402 23.16 221.93 23.2813 222.387 23.524C222.854 23.7666 223.213 24.0606 223.465 24.406V23.286H225.075V34.668H223.465V29.88C223.213 30.2253 222.849 30.5193 222.373 30.762C221.897 31.0046 221.356 31.126 220.749 31.126C220.086 31.126 219.48 30.958 218.929 30.622C218.388 30.2766 217.954 29.8006 217.627 29.194C217.31 28.578 217.151 27.8826 217.151 27.108ZM223.465 27.136C223.465 26.604 223.353 26.142 223.129 25.75C222.914 25.358 222.63 25.0593 222.275 24.854C221.92 24.6486 221.538 24.546 221.127 24.546C220.716 24.546 220.334 24.6486 219.979 24.854C219.624 25.05 219.335 25.344 219.111 25.736C218.896 26.1186 218.789 26.576 218.789 27.108C218.789 27.64 218.896 28.1066 219.111 28.508C219.335 28.9093 219.624 29.2173 219.979 29.432C220.343 29.6373 220.726 29.74 221.127 29.74C221.538 29.74 221.92 29.6373 222.275 29.432C222.63 29.2266 222.914 28.928 223.129 28.536C223.353 28.1346 223.465 27.668 223.465 27.136Z" fill="#624B25"/>
<path d="M234.157 23.286V31H232.561V30.09C232.309 30.4073 231.978 30.6593 231.567 30.846C231.166 31.0233 230.736 31.112 230.279 31.112C229.672 31.112 229.126 30.986 228.641 30.734C228.165 30.482 227.787 30.1086 227.507 29.614C227.236 29.1193 227.101 28.522 227.101 27.822V23.286H228.683V27.584C228.683 28.2746 228.856 28.8066 229.201 29.18C229.546 29.544 230.018 29.726 230.615 29.726C231.212 29.726 231.684 29.544 232.029 29.18C232.384 28.8066 232.561 28.2746 232.561 27.584V23.286H234.157Z" fill="#624B25"/>
<path d="M235.731 27.108C235.731 26.3333 235.89 25.6473 236.207 25.05C236.534 24.4526 236.972 23.9906 237.523 23.664C238.083 23.328 238.699 23.16 239.371 23.16C239.978 23.16 240.505 23.2813 240.953 23.524C241.41 23.7573 241.774 24.0513 242.045 24.406V23.286H243.655V31H242.045V29.852C241.774 30.216 241.406 30.5193 240.939 30.762C240.472 31.0046 239.94 31.126 239.343 31.126C238.68 31.126 238.074 30.958 237.523 30.622C236.972 30.2766 236.534 29.8006 236.207 29.194C235.89 28.578 235.731 27.8826 235.731 27.108ZM242.045 27.136C242.045 26.604 241.933 26.142 241.709 25.75C241.494 25.358 241.21 25.0593 240.855 24.854C240.5 24.6486 240.118 24.546 239.707 24.546C239.296 24.546 238.914 24.6486 238.559 24.854C238.204 25.05 237.915 25.344 237.691 25.736C237.476 26.1186 237.369 26.576 237.369 27.108C237.369 27.64 237.476 28.1066 237.691 28.508C237.915 28.9093 238.204 29.2173 238.559 29.432C238.923 29.6373 239.306 29.74 239.707 29.74C240.118 29.74 240.5 29.6373 240.855 29.432C241.21 29.2266 241.494 28.928 241.709 28.536C241.933 28.1346 242.045 27.668 242.045 27.136Z" fill="#624B25"/>
<path d="M247.613 24.588V28.858C247.613 29.1473 247.679 29.3573 247.809 29.488C247.949 29.6093 248.183 29.67 248.509 29.67H249.489V31H248.229C247.511 31 246.96 30.832 246.577 30.496C246.195 30.16 246.003 29.614 246.003 28.858V24.588H245.093V23.286H246.003V21.368H247.613V23.286H249.489V24.588H247.613Z" fill="#624B25"/>
<path d="M251.772 22.264C251.483 22.264 251.24 22.166 251.044 21.97C250.848 21.774 250.75 21.5313 250.75 21.242C250.75 20.9526 250.848 20.71 251.044 20.514C251.24 20.318 251.483 20.22 251.772 20.22C252.052 20.22 252.29 20.318 252.486 20.514C252.682 20.71 252.78 20.9526 252.78 21.242C252.78 21.5313 252.682 21.774 252.486 21.97C252.29 22.166 252.052 22.264 251.772 22.264ZM252.556 23.286V31H250.96V23.286H252.556Z" fill="#624B25"/>
<path d="M257.998 31.126C257.27 31.126 256.612 30.9626 256.024 30.636C255.436 30.3 254.974 29.8333 254.638 29.236C254.302 28.6293 254.134 27.9293 254.134 27.136C254.134 26.352 254.306 25.6566 254.652 25.05C254.997 24.4433 255.468 23.9766 256.066 23.65C256.663 23.3233 257.33 23.16 258.068 23.16C258.805 23.16 259.472 23.3233 260.07 23.65C260.667 23.9766 261.138 24.4433 261.484 25.05C261.829 25.6566 262.002 26.352 262.002 27.136C262.002 27.92 261.824 28.6153 261.47 29.222C261.115 29.8286 260.63 30.3 260.014 30.636C259.407 30.9626 258.735 31.126 257.998 31.126ZM257.998 29.74C258.408 29.74 258.791 29.642 259.146 29.446C259.51 29.25 259.804 28.956 260.028 28.564C260.252 28.172 260.364 27.696 260.364 27.136C260.364 26.576 260.256 26.1046 260.042 25.722C259.827 25.33 259.542 25.036 259.188 24.84C258.833 24.644 258.45 24.546 258.04 24.546C257.629 24.546 257.246 24.644 256.892 24.84C256.546 25.036 256.271 25.33 256.066 25.722C255.86 26.1046 255.758 26.576 255.758 27.136C255.758 27.9666 255.968 28.6106 256.388 29.068C256.817 29.516 257.354 29.74 257.998 29.74Z" fill="#624B25"/>
<path d="M267.471 23.16C268.078 23.16 268.619 23.286 269.095 23.538C269.581 23.79 269.959 24.1633 270.229 24.658C270.5 25.1526 270.635 25.75 270.635 26.45V31H269.053V26.688C269.053 25.9973 268.881 25.47 268.535 25.106C268.19 24.7326 267.719 24.546 267.121 24.546C266.524 24.546 266.048 24.7326 265.693 25.106C265.348 25.47 265.175 25.9973 265.175 26.688V31H263.579V23.286H265.175V24.168C265.437 23.8506 265.768 23.6033 266.169 23.426C266.58 23.2486 267.014 23.16 267.471 23.16Z" fill="#624B25"/>
<path d="M275.471 31.126C274.864 31.126 274.318 31.0186 273.833 30.804C273.357 30.58 272.979 30.2813 272.699 29.908C272.419 29.5253 272.27 29.1006 272.251 28.634H273.903C273.931 28.9606 274.085 29.236 274.365 29.46C274.654 29.6746 275.014 29.782 275.443 29.782C275.891 29.782 276.236 29.698 276.479 29.53C276.731 29.3526 276.857 29.1286 276.857 28.858C276.857 28.5686 276.717 28.354 276.437 28.214C276.166 28.074 275.732 27.92 275.135 27.752C274.556 27.5933 274.085 27.4393 273.721 27.29C273.357 27.1406 273.04 26.912 272.769 26.604C272.508 26.296 272.377 25.89 272.377 25.386C272.377 24.9753 272.498 24.602 272.741 24.266C272.984 23.9206 273.329 23.65 273.777 23.454C274.234 23.258 274.757 23.16 275.345 23.16C276.222 23.16 276.927 23.384 277.459 23.832C278 24.2706 278.29 24.8726 278.327 25.638H276.731C276.703 25.2926 276.563 25.0173 276.311 24.812C276.059 24.6066 275.718 24.504 275.289 24.504C274.869 24.504 274.547 24.5833 274.323 24.742C274.099 24.9006 273.987 25.1106 273.987 25.372C273.987 25.5773 274.062 25.75 274.211 25.89C274.36 26.03 274.542 26.142 274.757 26.226C274.972 26.3006 275.289 26.3986 275.709 26.52C276.269 26.6693 276.726 26.8233 277.081 26.982C277.445 27.1313 277.758 27.3553 278.019 27.654C278.28 27.9526 278.416 28.3493 278.425 28.844C278.425 29.2826 278.304 29.6746 278.061 30.02C277.818 30.3653 277.473 30.636 277.025 30.832C276.586 31.028 276.068 31.126 275.471 31.126Z" fill="#624B25"/>
</svg>
